<?xml version="1.0" encoding="UTF-8"?>
<svg id="Edia_Rounded" xmlns="http://www.w3.org/2000/svg" version="1.1" viewBox="0 0 1024 1024">
  <!-- Generator: Adobe Illustrator 29.3.1, SVG Export Plug-In . SVG Version: 2.1.0 Build 151)  -->
  <defs>
    <style>
      .st0 {
        fill: #f5f5f6;
      }

      .st1 {
        fill: #f2f2f2;
      }

      .st2 {
        fill: #0d0d0d;
      }
    </style>
  </defs>
  <g>
    <path class="st1" d="M870.92,0h-305.83C535.77,0,512,23.77,512,53.08v153.08h217.2c27.61,0,50,22.39,50,50v106.17c0,27.61-22.39,50-50,50h-217.2v199.34h217.2c27.61,0,50,22.39,50,50v106.17c0,27.61-22.39,50-50,50h-217.2v153.08c0,29.32,23.77,53.08,53.08,53.08h305.83c84.55,0,153.08-68.54,153.08-153.08V153.08C1024,68.54,955.46,0,870.92,0Z"/>
    <path class="st2" d="M512,206.17v206.17s217.2,0,217.2,0c27.61,0,50-22.39,50-50v-106.17c0-27.61-22.39-50-50-50h-217.2Z"/>
    <path class="st2" d="M512,611.67v206.17s217.2,0,217.2,0c27.61,0,50-22.39,50-50v-106.17c0-27.61-22.39-50-50-50h-217.2Z"/>
  </g>
  <g>
    <path class="st2" d="M153.08,0h305.83c29.32,0,53.08,23.77,53.08,53.08v153.08h-217.2c-27.61,0-50,22.39-50,50v106.17c0,27.61,22.39,50,50,50h217.2v199.34h-217.2c-27.61,0-50,22.39-50,50v106.17c0,27.61,22.39,50,50,50h217.2v153.08c0,29.32-23.77,53.08-53.08,53.08H153.08C68.54,1024,0,955.46,0,870.92V153.08C0,68.54,68.54,0,153.08,0Z"/>
    <path class="st0" d="M512,206.17v206.17s-217.2,0-217.2,0c-27.61,0-50-22.39-50-50v-106.17c0-27.61,22.39-50,50-50h217.2Z"/>
    <path class="st0" d="M512,611.67v206.17h-217.2c-27.61,0-50-22.39-50-50v-106.17c0-27.61,22.39-50,50-50h217.2Z"/>
  </g>
</svg>